<mxfile host="app.diagrams.net" agent="Mozilla/5.0 (X11; Linux x86_64; rv:138.0) Gecko/20100101 Firefox/138.0" version="28.0.7">
  <diagram name="Page-1" id="QXizN9flqTxCmcqTdpQB">
    <mxGraphModel dx="872" dy="600" grid="1" gridSize="10" guides="1" tooltips="1" connect="1" arrows="1" fold="1" page="1" pageScale="1" pageWidth="850" pageHeight="1100" math="0" shadow="0">
      <root>
        <mxCell id="0" />
        <mxCell id="1" parent="0" />
        <mxCell id="-Po2VdX33-NVV1qi-q2h-1" value="CASH" style="rhombus;whiteSpace=wrap;html=1;" vertex="1" parent="1">
          <mxGeometry x="240" y="80" width="120" height="110" as="geometry" />
        </mxCell>
        <mxCell id="-Po2VdX33-NVV1qi-q2h-4" value="" style="endArrow=classic;html=1;rounded=0;exitX=1;exitY=0.5;exitDx=0;exitDy=0;" edge="1" parent="1" source="-Po2VdX33-NVV1qi-q2h-1">
          <mxGeometry width="50" height="50" relative="1" as="geometry">
            <mxPoint x="400" y="340" as="sourcePoint" />
            <mxPoint x="440" y="135" as="targetPoint" />
          </mxGeometry>
        </mxCell>
        <mxCell id="-Po2VdX33-NVV1qi-q2h-5" value="Every 3 Mins" style="text;html=1;align=center;verticalAlign=middle;whiteSpace=wrap;rounded=0;" vertex="1" parent="1">
          <mxGeometry x="365" y="100" width="60" height="30" as="geometry" />
        </mxCell>
        <mxCell id="-Po2VdX33-NVV1qi-q2h-6" value="Work Queue" style="swimlane;fontStyle=0;childLayout=stackLayout;horizontal=1;startSize=30;horizontalStack=0;resizeParent=1;resizeParentMax=0;resizeLast=0;collapsible=1;marginBottom=0;whiteSpace=wrap;html=1;" vertex="1" parent="1">
          <mxGeometry x="450" y="100" width="140" height="110" as="geometry" />
        </mxCell>
        <mxCell id="-Po2VdX33-NVV1qi-q2h-9" value="&lt;div&gt;123&lt;span style=&quot;white-space: pre;&quot;&gt;&#x9;&lt;/span&gt;&lt;span style=&quot;white-space: pre;&quot;&gt;&#x9;&lt;/span&gt;1001011&amp;nbsp;&amp;nbsp;&amp;nbsp;&amp;nbsp; Note&lt;/div&gt;&lt;div&gt;124&lt;span style=&quot;white-space: pre;&quot;&gt;&#x9;&lt;/span&gt;&lt;span style=&quot;white-space: pre;&quot;&gt;&#x9;&lt;/span&gt;1010112&amp;nbsp;&amp;nbsp;&amp;nbsp;&amp;nbsp; Note&lt;/div&gt;&lt;div&gt;125&lt;span style=&quot;white-space: pre;&quot;&gt;&#x9;&lt;/span&gt;&lt;span style=&quot;white-space: pre;&quot;&gt;&#x9;&lt;/span&gt;1010222&amp;nbsp;&amp;nbsp;&amp;nbsp;&amp;nbsp; Note&lt;/div&gt;&lt;div&gt;126&amp;nbsp;&amp;nbsp;&amp;nbsp;&amp;nbsp; &lt;span style=&quot;white-space: pre;&quot;&gt;&#x9;&lt;/span&gt;1020301&lt;span style=&quot;white-space: pre;&quot;&gt;&#x9;   Note&lt;/span&gt; &lt;br&gt;&lt;/div&gt;" style="text;strokeColor=none;fillColor=none;align=left;verticalAlign=middle;spacingLeft=4;spacingRight=4;overflow=hidden;points=[[0,0.5],[1,0.5]];portConstraint=eastwest;rotatable=0;whiteSpace=wrap;html=1;" vertex="1" parent="-Po2VdX33-NVV1qi-q2h-6">
          <mxGeometry y="30" width="140" height="80" as="geometry" />
        </mxCell>
        <mxCell id="-Po2VdX33-NVV1qi-q2h-11" value="Check Status " style="shape=parallelogram;perimeter=parallelogramPerimeter;whiteSpace=wrap;html=1;fixedSize=1;" vertex="1" parent="1">
          <mxGeometry x="445" y="340" width="150" height="70" as="geometry" />
        </mxCell>
        <mxCell id="-Po2VdX33-NVV1qi-q2h-13" value="Triggers when an item is added or modified" style="text;html=1;align=center;verticalAlign=middle;whiteSpace=wrap;rounded=0;" vertex="1" parent="1">
          <mxGeometry x="445" y="250" width="60" height="30" as="geometry" />
        </mxCell>
        <mxCell id="-Po2VdX33-NVV1qi-q2h-15" value="" style="endArrow=classic;html=1;rounded=0;exitX=0.386;exitY=1.038;exitDx=0;exitDy=0;exitPerimeter=0;entryX=0.4;entryY=-0.014;entryDx=0;entryDy=0;entryPerimeter=0;" edge="1" parent="1" source="-Po2VdX33-NVV1qi-q2h-9" target="-Po2VdX33-NVV1qi-q2h-11">
          <mxGeometry width="50" height="50" relative="1" as="geometry">
            <mxPoint x="400" y="340" as="sourcePoint" />
            <mxPoint x="450" y="290" as="targetPoint" />
          </mxGeometry>
        </mxCell>
        <mxCell id="-Po2VdX33-NVV1qi-q2h-16" value="" style="endArrow=classic;html=1;rounded=0;entryX=0.643;entryY=1.05;entryDx=0;entryDy=0;entryPerimeter=0;" edge="1" parent="1" target="-Po2VdX33-NVV1qi-q2h-9">
          <mxGeometry width="50" height="50" relative="1" as="geometry">
            <mxPoint x="540" y="340" as="sourcePoint" />
            <mxPoint x="590" y="290" as="targetPoint" />
          </mxGeometry>
        </mxCell>
        <mxCell id="-Po2VdX33-NVV1qi-q2h-17" value="Updates verisae_status and changes work queue item status" style="text;html=1;align=center;verticalAlign=middle;whiteSpace=wrap;rounded=0;" vertex="1" parent="1">
          <mxGeometry x="550" y="250" width="60" height="30" as="geometry" />
        </mxCell>
        <mxCell id="-Po2VdX33-NVV1qi-q2h-18" value="Verisae (any client)" style="rhombus;whiteSpace=wrap;html=1;" vertex="1" parent="1">
          <mxGeometry x="240" y="320" width="120" height="110" as="geometry" />
        </mxCell>
        <mxCell id="-Po2VdX33-NVV1qi-q2h-20" value="" style="endArrow=classic;startArrow=classic;html=1;rounded=0;entryX=1;entryY=0.5;entryDx=0;entryDy=0;exitX=0;exitY=0.5;exitDx=0;exitDy=0;" edge="1" parent="1" source="-Po2VdX33-NVV1qi-q2h-11" target="-Po2VdX33-NVV1qi-q2h-18">
          <mxGeometry width="50" height="50" relative="1" as="geometry">
            <mxPoint x="450" y="380" as="sourcePoint" />
            <mxPoint x="500" y="330" as="targetPoint" />
          </mxGeometry>
        </mxCell>
        <mxCell id="-Po2VdX33-NVV1qi-q2h-21" value="Login and Check verisae status from table" style="text;html=1;align=center;verticalAlign=middle;whiteSpace=wrap;rounded=0;" vertex="1" parent="1">
          <mxGeometry x="360" y="340" width="90" height="30" as="geometry" />
        </mxCell>
        <mxCell id="-Po2VdX33-NVV1qi-q2h-24" value="" style="endArrow=classic;html=1;rounded=0;entryX=0.403;entryY=0;entryDx=0;entryDy=0;entryPerimeter=0;" edge="1" parent="1" target="-Po2VdX33-NVV1qi-q2h-25">
          <mxGeometry width="50" height="50" relative="1" as="geometry">
            <mxPoint x="505" y="410" as="sourcePoint" />
            <mxPoint x="505" y="470" as="targetPoint" />
          </mxGeometry>
        </mxCell>
        <mxCell id="-Po2VdX33-NVV1qi-q2h-25" value="Work Order Updater" style="shape=parallelogram;perimeter=parallelogramPerimeter;whiteSpace=wrap;html=1;fixedSize=1;" vertex="1" parent="1">
          <mxGeometry x="440" y="490" width="160" height="70" as="geometry" />
        </mxCell>
        <mxCell id="-Po2VdX33-NVV1qi-q2h-26" value="Triggers if verisae_status doesn&#39;t match WO status" style="text;html=1;align=center;verticalAlign=middle;whiteSpace=wrap;rounded=0;" vertex="1" parent="1">
          <mxGeometry x="415" y="430" width="90" height="30" as="geometry" />
        </mxCell>
        <mxCell id="-Po2VdX33-NVV1qi-q2h-28" value="" style="endArrow=classic;html=1;rounded=0;exitX=0.75;exitY=0;exitDx=0;exitDy=0;" edge="1" parent="1" source="-Po2VdX33-NVV1qi-q2h-25">
          <mxGeometry width="50" height="50" relative="1" as="geometry">
            <mxPoint x="540" y="380" as="sourcePoint" />
            <mxPoint x="560" y="412" as="targetPoint" />
          </mxGeometry>
        </mxCell>
        <mxCell id="-Po2VdX33-NVV1qi-q2h-29" value="Returns new versiae status " style="text;html=1;align=center;verticalAlign=middle;whiteSpace=wrap;rounded=0;" vertex="1" parent="1">
          <mxGeometry x="560" y="440" width="60" height="30" as="geometry" />
        </mxCell>
        <mxCell id="-Po2VdX33-NVV1qi-q2h-31" value="" style="curved=1;endArrow=classic;html=1;rounded=0;entryX=0.5;entryY=1;entryDx=0;entryDy=0;" edge="1" parent="1" target="-Po2VdX33-NVV1qi-q2h-18">
          <mxGeometry width="50" height="50" relative="1" as="geometry">
            <mxPoint x="445" y="540" as="sourcePoint" />
            <mxPoint x="280" y="510" as="targetPoint" />
            <Array as="points">
              <mxPoint x="380" y="540" />
              <mxPoint x="350" y="530" />
              <mxPoint x="330" y="500" />
            </Array>
          </mxGeometry>
        </mxCell>
        <mxCell id="-Po2VdX33-NVV1qi-q2h-33" value="Login and update status to desired." style="text;html=1;align=center;verticalAlign=middle;whiteSpace=wrap;rounded=0;" vertex="1" parent="1">
          <mxGeometry x="350" y="490" width="60" height="30" as="geometry" />
        </mxCell>
        <mxCell id="-Po2VdX33-NVV1qi-q2h-35" value="" style="curved=1;endArrow=classic;html=1;rounded=0;exitX=0.2;exitY=0.745;exitDx=0;exitDy=0;exitPerimeter=0;entryX=0.5;entryY=1;entryDx=0;entryDy=0;" edge="1" parent="1" target="-Po2VdX33-NVV1qi-q2h-25">
          <mxGeometry width="50" height="50" relative="1" as="geometry">
            <mxPoint x="267" y="400.98" as="sourcePoint" />
            <mxPoint x="493" y="649.03" as="targetPoint" />
            <Array as="points">
              <mxPoint x="290" y="500" />
              <mxPoint x="320" y="560" />
              <mxPoint x="380" y="590" />
              <mxPoint x="440" y="590" />
            </Array>
          </mxGeometry>
        </mxCell>
        <mxCell id="-Po2VdX33-NVV1qi-q2h-40" value="Returns new versiae status " style="text;html=1;align=center;verticalAlign=middle;whiteSpace=wrap;rounded=0;" vertex="1" parent="1">
          <mxGeometry x="290" y="580" width="60" height="30" as="geometry" />
        </mxCell>
      </root>
    </mxGraphModel>
  </diagram>
</mxfile>
